<svg width="128" height="35" viewBox="0 0 128 35" fill="none" xmlns="http://www.w3.org/2000/svg">
    <path d="M49.692 24.5668H46.2786V12.1072H54.8406C55.7646 12.1072 56.5473 12.2 57.1885 12.3857C57.8297 12.5714 58.3483 12.8407 58.7538 13.1842C59.1593 13.5277 59.4516 13.9455 59.6307 14.4283C59.8099 14.9111 59.9042 15.4588 59.9042 16.053C59.9042 16.5823 59.8288 17.0372 59.6779 17.4271C59.527 17.8171 59.329 18.1606 59.0744 18.4391C58.8198 18.7177 58.5275 18.9591 58.188 19.154C57.8486 19.349 57.4902 19.5068 57.1225 19.6368L61.2715 24.5575H57.2545L53.4261 19.9711H49.692V24.5668ZM56.4436 16.0438C56.4436 15.8024 56.4153 15.5981 56.3493 15.431C56.2833 15.2639 56.1701 15.1246 56.0098 15.0225C55.8495 14.9204 55.6326 14.8368 55.3686 14.7904C55.1046 14.7439 54.7651 14.7161 54.3691 14.7161H49.692V17.3807H54.3691C54.7651 17.3807 55.1046 17.3529 55.3686 17.3064C55.6326 17.26 55.8495 17.1857 56.0098 17.0743C56.1701 16.9722 56.2833 16.8329 56.3493 16.6658C56.4153 16.4894 56.4436 16.2852 56.4436 16.0438Z" fill="white"/>
    <path d="M65.9864 14.614V20.2217C65.9864 20.5931 66.0147 20.9273 66.0807 21.2337C66.1467 21.5401 66.2599 21.7908 66.4296 22.0136C66.5993 22.2364 66.8445 22.3943 67.1462 22.515C67.448 22.6357 67.8535 22.6914 68.3532 22.6914C68.7304 22.6914 69.117 22.6449 69.5225 22.5428C69.9279 22.4407 70.3334 22.3107 70.7389 22.1343C71.1443 21.9672 71.5215 21.7722 71.8893 21.5494C72.257 21.3266 72.5776 21.1037 72.8699 20.8623V14.6233H75.5951V24.5761H72.8699V23.2113C72.5305 23.4063 72.1627 23.6012 71.7761 23.7962C71.3895 23.9912 70.9746 24.1676 70.5409 24.3254C70.1071 24.4833 69.6451 24.6132 69.1547 24.7061C68.6644 24.8082 68.1458 24.8546 67.5989 24.8546C66.9199 24.8546 66.307 24.7711 65.7695 24.6132C65.2321 24.4554 64.77 24.2233 64.4023 23.9262C64.0251 23.6291 63.7422 23.267 63.5442 22.8492C63.3462 22.4314 63.2424 21.9579 63.2424 21.438V14.6325H65.9864V14.614Z" fill="white"/>
    <path d="M77.9429 24.5668V21.9579H80.734V24.5668H77.9429Z" fill="white"/>
    <path d="M97.9051 21.1316C97.9051 21.6144 97.8391 22.0322 97.7071 22.3943C97.575 22.7471 97.3959 23.0535 97.1696 23.3134C96.9433 23.5734 96.6604 23.7776 96.3398 23.9355C96.0192 24.0933 95.6608 24.2233 95.2742 24.3161C94.8876 24.409 94.4727 24.474 94.0295 24.5111C93.5864 24.5482 93.1337 24.5668 92.6528 24.5668H83.4685V12.1072H92.4831C92.8414 12.1072 93.2092 12.1257 93.5769 12.1536C93.9447 12.1815 94.2936 12.2372 94.6236 12.3207C94.9536 12.4043 95.2648 12.5157 95.5477 12.6642C95.8306 12.8128 96.0852 12.9985 96.2926 13.2399C96.5001 13.472 96.6698 13.7598 96.7924 14.094C96.915 14.4283 96.9715 14.8182 96.9715 15.2731C96.9715 16.0809 96.7735 16.7215 96.3681 17.2043C95.9626 17.6778 95.3214 17.9935 94.4539 18.1513C95.0668 18.1977 95.5948 18.2906 96.038 18.4298C96.4812 18.5691 96.8301 18.7641 97.113 19.0148C97.3864 19.2561 97.5939 19.5625 97.7165 19.9153C97.8391 20.2403 97.9051 20.6581 97.9051 21.1316ZM93.6335 15.7931C93.6335 15.6352 93.6052 15.4867 93.5581 15.3474C93.5109 15.2082 93.4166 15.0782 93.294 14.9668C93.162 14.8554 92.9923 14.7718 92.766 14.7068C92.5491 14.6418 92.2662 14.6047 91.9173 14.6047H86.882V16.9443H91.9173C92.2568 16.9443 92.5397 16.9165 92.766 16.8515C92.9829 16.7958 93.162 16.7122 93.294 16.6101C93.4261 16.508 93.5109 16.3873 93.5581 16.2387C93.6146 16.0995 93.6335 15.9509 93.6335 15.7931ZM94.4256 20.7416C94.4256 20.4538 94.3784 20.231 94.2747 20.0546C94.1804 19.8782 94.0201 19.7482 93.8127 19.6554C93.6052 19.5625 93.3318 19.4975 93.0017 19.4697C92.6717 19.4418 92.2757 19.4233 91.8136 19.4233H86.8726V22.06H91.8136C92.2757 22.06 92.6717 22.0415 93.0017 22.0136C93.3318 21.9858 93.6052 21.9208 93.8127 21.8186C94.0201 21.7258 94.171 21.5865 94.2747 21.4194C94.3784 21.2523 94.4256 21.0202 94.4256 20.7416Z" fill="white"/>
    <path d="M101.017 24.5668V12.1072H104.431V24.5668H101.017Z" fill="white"/>
    <path d="M124.487 24.5668V15.8116L119.791 24.5668H116.51L111.814 15.8116V24.5668H108.4V12.1072H113.039L118.15 21.5401L123.261 12.1072H127.881V24.5668H124.487Z" fill="white"/>
    <path d="M8.91906 2.90634C11.4367 1.51368 14.3316 0.715225 17.4245 0.715225C27.0237 0.715225 34.803 8.37484 34.803 17.8263C34.803 21.7629 33.4546 25.3745 31.1821 28.2713L21.7903 22.7935L26.2882 20.2774C27.6838 19.4975 28.523 18.077 28.523 16.4894C28.523 14.9018 27.6838 13.4905 26.2882 12.7106L8.91906 2.90634ZM10.7578 20.1289C10.4655 20.1289 10.2298 20.231 10.1166 20.296C9.91859 20.4074 9.46597 20.7323 9.46597 21.3915V23.954C9.46597 24.6132 9.90916 24.9382 10.1072 25.0496C10.2958 25.161 10.805 25.3838 11.3896 25.0589L15.548 22.7285L11.399 20.3053C11.1727 20.1753 10.9558 20.1289 10.7578 20.1289ZM18.6597 24.5389L12.936 27.742C11.5499 28.5219 9.89973 28.5126 8.52302 27.7235C7.14631 26.9343 6.32595 25.5324 6.32595 23.9633V21.4008C6.32595 19.8225 7.15574 18.402 8.55131 17.6221C9.94687 16.8422 11.6065 16.8515 12.9926 17.6499L18.688 20.9644L24.7418 17.5757C25.3264 17.2507 25.3924 16.6936 25.3924 16.4801C25.3924 16.2573 25.3264 15.7095 24.7418 15.3845L6.08078 4.86534C2.39384 8.00346 0.0458984 12.6364 0.0458984 17.817C0.0458984 27.2685 7.82524 34.9282 17.4245 34.9282C21.8658 34.9282 25.9205 33.2848 28.9945 30.5738L18.6597 24.5389Z" fill="white"/>
</svg>
