<svg viewBox="0 0 1680 315" fill="none" xmlns="http://www.w3.org/2000/svg" shape-rendering="geometricPrecision">
<path d="M426.509 244C401.451 244 380.754 235.683 364.419 219.048C348.084 202.413 339.916 181.897 339.916 157.5C339.916 132.944 348.084 112.428 364.419 95.9519C380.754 79.3173 401.451 71 426.509 71C441.575 71 455.452 74.5646 468.14 81.6937C480.986 88.6644 490.978 98.1699 498.114 110.21L469.805 126.607C465.682 119.161 459.814 113.379 452.201 109.26C444.589 104.982 436.025 102.843 426.509 102.843C410.332 102.843 397.248 107.913 387.257 118.052C377.424 128.191 372.507 141.341 372.507 157.5C372.507 173.501 377.424 186.571 387.257 196.71C397.248 206.849 410.332 211.919 426.509 211.919C436.025 211.919 444.589 209.859 452.201 205.74C459.972 201.463 465.84 195.68 469.805 188.393L483.96 196.591L498.114 204.79C490.978 216.83 481.065 226.415 468.378 233.544C455.69 240.515 441.734 244 426.509 244Z" fill="url(#paint0_linear)"/>
<path d="M675.805 219.048C658.994 235.683 638.535 244 614.429 244C590.323 244 569.864 235.683 553.053 219.048C536.4 202.255 528.074 181.739 528.074 157.5C528.074 133.261 536.4 112.824 553.053 96.1896C569.864 79.3965 590.323 71 614.429 71C638.535 71 658.994 79.3965 675.805 96.1896C692.616 112.824 701.022 133.261 701.022 157.5C701.022 181.739 692.616 202.255 675.805 219.048ZM576.128 196.71C586.437 206.849 599.204 211.919 614.429 211.919C629.654 211.919 642.421 206.849 652.73 196.71C663.038 186.413 668.193 173.342 668.193 157.5C668.193 141.658 663.038 128.587 652.73 118.29C642.421 107.992 629.654 102.843 614.429 102.843C599.204 102.843 586.437 107.992 576.128 118.29C565.82 128.587 560.665 141.658 560.665 157.5C560.665 173.342 565.82 186.413 576.128 196.71Z" fill="url(#paint1_linear)"/>
<path d="M839.473 74.3269H872.302V240.673H847.324L775.956 138.964V240.673H743.127V74.3269H768.106L839.473 175.798V74.3269Z" fill="url(#paint2_linear)"/>
<path d="M1032.37 74.3269V105.695H987.407V240.673H954.578V105.695H909.854V74.3269H1032.37Z" fill="url(#paint3_linear)"/>
<path d="M1295.81 244C1277.26 244 1262.03 238.772 1250.14 228.316C1238.24 217.86 1232.3 203.839 1232.3 186.254V74.3269H1264.89V183.64C1264.89 192.353 1267.35 199.245 1272.26 204.315C1277.34 209.384 1285.19 211.919 1295.81 211.919C1306.44 211.919 1314.21 209.384 1319.13 204.315C1324.2 199.245 1326.74 192.353 1326.74 183.64V74.3269H1359.57V186.254C1359.57 203.839 1353.62 217.86 1341.73 228.316C1329.83 238.772 1314.53 244 1295.81 244Z" fill="url(#paint4_linear)"/>
<path d="M1465.03 244C1448.54 244 1434.66 240.356 1423.4 233.069C1412.14 225.623 1404.21 215.563 1399.61 202.889L1427.68 186.492C1434.19 203.443 1446.95 211.919 1465.98 211.919C1475.18 211.919 1481.92 210.255 1486.2 206.929C1490.49 203.602 1492.63 199.403 1492.63 194.334C1492.63 188.472 1490.01 183.957 1484.78 180.788C1479.54 177.462 1470.19 173.897 1456.71 170.095C1449.25 167.877 1442.91 165.659 1437.67 163.441C1432.6 161.223 1427.44 158.292 1422.21 154.648C1417.14 150.846 1413.25 146.093 1410.55 140.39C1407.86 134.687 1406.51 128.033 1406.51 120.429C1406.51 105.378 1411.82 93.4171 1422.45 84.5453C1433.23 75.5151 1446.16 71 1461.23 71C1474.71 71 1486.52 74.3269 1496.67 80.9808C1506.98 87.4762 1514.99 96.5856 1520.7 108.309L1493.1 124.231C1486.44 109.973 1475.82 102.843 1461.23 102.843C1454.41 102.843 1449.01 104.428 1445.05 107.596C1441.24 110.606 1439.34 114.567 1439.34 119.478C1439.34 124.706 1441.48 128.984 1445.76 132.31C1450.2 135.479 1458.61 138.964 1470.98 142.766C1476.05 144.351 1479.86 145.618 1482.4 146.569C1485.09 147.361 1488.66 148.707 1493.1 150.609C1497.7 152.351 1501.19 154.015 1503.57 155.599C1506.11 157.183 1508.96 159.322 1512.13 162.015C1515.31 164.708 1517.69 167.481 1519.27 170.332C1521.02 173.184 1522.44 176.669 1523.55 180.788C1524.82 184.749 1525.46 189.106 1525.46 193.858C1525.46 209.226 1519.83 221.424 1508.57 230.455C1497.46 239.485 1482.95 244 1465.03 244Z" fill="url(#paint5_linear)"/>
<path d="M1679.92 74.3269L1656.64 105.695H1625.04V240.673H1592.21V105.695H1547.49V74.3269H1679.92Z" fill="url(#paint6_linear)"/>
<path fill-rule="evenodd" clip-rule="evenodd" d="M1163 237.346L1129.46 179.6H1104.48V237.346H1071.65V71H1138.26C1153.64 71 1166.73 76.3865 1177.51 87.1593C1188.3 97.9322 1193.69 110.923 1193.69 126.132C1193.69 136.429 1190.76 146.014 1184.89 154.886C1179.02 163.599 1171.25 170.174 1161.57 174.61L1198.45 237.346H1163ZM1125.65 150.846L1104.48 179.563V150.825L1104.48 150.825V101.655H1138.26C1144.45 101.655 1149.76 104.032 1154.2 108.784C1158.64 113.537 1160.86 119.32 1160.86 126.132C1160.86 132.944 1158.64 138.806 1154.2 143.717C1149.76 148.47 1144.45 150.846 1138.26 150.846H1125.65Z" fill="url(#paint7_linear)"/>
<path d="M229.349 214.655C264.647 140.01 228.42 54.0776 152.764 10.916C145.168 6.58227 137.364 2.95046 129.427 0C153.564 1.0819 177.814 7.75883 200.252 20.5599C275.907 63.7215 302.316 160.161 259.239 235.963C232.273 283.413 170.811 315 142.78 315C114.75 315 113.675 284.216 135.681 282.036C183.521 277.298 219.273 235.963 229.349 214.655Z" fill="#20063A"/>
<path d="M49.7797 123.737C20.0085 165.535 32.1787 221.458 79.4536 248.26C84.2003 250.951 89.0768 253.206 94.0364 255.038C78.9538 254.366 63.8007 250.22 49.7797 242.271C2.5048 215.47 -13.9976 155.585 12.9206 108.515C29.7706 79.0512 61.7516 59.4373 85.6923 59.4373C109.633 59.4373 110.809 87.8015 94.0364 93.4783C68.4932 102.124 58.2468 111.85 49.7797 123.737Z" fill="#20063A"/>
<defs>
<linearGradient id="paint0_linear" x1="1734.14" y1="-72.59" x2="1460.06" y2="632.724" gradientUnits="userSpaceOnUse">
<stop offset="0.102138" stop-color="#24FF42"/>
<stop offset="0.515687" stop-color="#240742"/>
</linearGradient>
<linearGradient id="paint1_linear" x1="1734.14" y1="-72.59" x2="1460.06" y2="632.724" gradientUnits="userSpaceOnUse">
<stop offset="0.102138" stop-color="#24FF42"/>
<stop offset="0.515687" stop-color="#240742"/>
</linearGradient>
<linearGradient id="paint2_linear" x1="1734.14" y1="-72.59" x2="1460.06" y2="632.724" gradientUnits="userSpaceOnUse">
<stop offset="0.102138" stop-color="#24FF42"/>
<stop offset="0.515687" stop-color="#240742"/>
</linearGradient>
<linearGradient id="paint3_linear" x1="1734.14" y1="-72.59" x2="1460.06" y2="632.724" gradientUnits="userSpaceOnUse">
<stop offset="0.102138" stop-color="#24FF42"/>
<stop offset="0.515687" stop-color="#240742"/>
</linearGradient>
<linearGradient id="paint4_linear" x1="1734.14" y1="-72.59" x2="1460.06" y2="632.724" gradientUnits="userSpaceOnUse">
<stop offset="0.102138" stop-color="#24FF42"/>
<stop offset="0.515687" stop-color="#240742"/>
</linearGradient>
<linearGradient id="paint5_linear" x1="1734.14" y1="-72.59" x2="1460.06" y2="632.724" gradientUnits="userSpaceOnUse">
<stop offset="0.102138" stop-color="#24FF42"/>
<stop offset="0.515687" stop-color="#240742"/>
</linearGradient>
<linearGradient id="paint6_linear" x1="1734.14" y1="-72.59" x2="1460.06" y2="632.724" gradientUnits="userSpaceOnUse">
<stop offset="0.102138" stop-color="#24FF42"/>
<stop offset="0.515687" stop-color="#240742"/>
</linearGradient>
<linearGradient id="paint7_linear" x1="1734.14" y1="-72.59" x2="1460.06" y2="632.724" gradientUnits="userSpaceOnUse">
<stop offset="0.102138" stop-color="#24FF42"/>
<stop offset="0.515687" stop-color="#240742"/>
</linearGradient>
</defs>
</svg>
