<svg width="327" height="81" viewBox="0 0 327 81" fill="none" xmlns="http://www.w3.org/2000/svg">
<path d="M43.3198 0H24.708V56.3056H43.3198V0Z" fill="#A1CDFC"/>
<path d="M81.0593 56.3125V37.716H24.7074V56.3125H81.0593Z" fill="#A1CDFC"/>
<path d="M74.5414 19.5404L61.5076 6.51727L28.2215 39.776L41.2554 52.7992L74.5414 19.5404Z" fill="#A1CDFC"/>
<path d="M56.3521 24.6874H24.708V56.3056H56.3521V24.6874Z" fill="#578DF1"/>
<path d="M37.7466 81H56.3584L56.3584 24.6944H37.7466L37.7466 81Z" fill="#4660E3"/>
<path d="M0 24.6875L0 43.284H56.3519V24.6875L0 24.6875Z" fill="#4660E3"/>
<path d="M6.50569 61.4664L19.5396 74.4896L52.8256 41.2309L39.7917 28.2077L6.50569 61.4664Z" fill="#4660E3"/>
<path d="M24.7143 56.3126L56.3584 56.3126L56.3584 24.6944L24.7143 24.6944L24.7143 56.3126Z" fill="#578DF1"/>
<path d="M123.999 29.7397H117.147V55.0622H111.212V29.7397H104.359V24.6266H123.999V29.7397Z" fill="white"/>
<path d="M124.089 55.0623V35.3057H129.615V38.2763C130.152 37.139 131.013 36.186 132.091 35.5376C133.086 34.9259 134.24 34.6224 135.407 34.6652C136.219 34.6819 137.022 34.8349 137.783 35.1179L137.054 40.3304C136.066 39.7248 134.898 39.4798 133.75 39.6368C132.601 39.7938 131.543 40.3432 130.754 41.1918C129.901 42.499 129.511 44.0546 129.648 45.6091V55.0954L124.089 55.0623Z" fill="white"/>
<path d="M155.698 37.8568V35.3058H161.224V55.0624H155.698V52.5114C155.043 53.5184 154.14 54.3406 153.075 54.8993C152.011 55.4581 150.821 55.7348 149.619 55.7029C148.256 55.7499 146.899 55.5007 145.641 54.9726C144.384 54.4444 143.256 53.65 142.336 52.6439C140.537 50.5692 139.541 47.9193 139.529 45.1743C139.517 42.4293 140.489 39.7707 142.269 37.6801C143.158 36.6931 144.251 35.9119 145.473 35.3912C146.694 34.8704 148.015 34.6227 149.343 34.6653C150.59 34.5857 151.837 34.8393 152.954 35.4002C154.071 35.9611 155.018 36.809 155.698 37.8568ZM154.692 41.1698C153.643 40.1426 152.232 39.5673 150.763 39.5673C149.294 39.5673 147.884 40.1426 146.834 41.1698C146.325 41.6969 145.926 42.3198 145.661 43.0023C145.395 43.6849 145.268 44.4134 145.287 45.1455C145.266 45.8794 145.393 46.61 145.659 47.2945C145.924 47.9791 146.324 48.6038 146.834 49.1321C147.348 49.6513 147.96 50.0635 148.634 50.3448C149.309 50.6262 150.032 50.771 150.763 50.771C151.494 50.771 152.218 50.6262 152.892 50.3448C153.567 50.0635 154.178 49.6513 154.692 49.1321C155.203 48.6038 155.602 47.9791 155.868 47.2945C156.134 46.61 156.26 45.8794 156.24 45.1455C156.259 44.4134 156.131 43.6849 155.866 43.0023C155.6 42.3198 155.201 41.6969 154.692 41.1698Z" fill="white"/>
<path d="M166.563 55.0624V35.3058H172.089V37.8568C172.759 36.8537 173.672 36.0355 174.742 35.4776C175.812 34.9198 177.005 34.6405 178.212 34.6653C179.308 34.588 180.406 34.7663 181.421 35.186C182.436 35.6058 183.339 36.2554 184.059 37.0837C185.191 38.6938 185.741 40.6414 185.617 42.6054V55.0182H180.036V44.2509C180.185 42.873 179.81 41.4893 178.986 40.3747C178.649 40.0331 178.243 39.7669 177.795 39.5936C177.347 39.4204 176.868 39.3441 176.389 39.3697C175.715 39.3311 175.044 39.4712 174.442 39.7757C173.84 40.0802 173.33 40.5383 172.962 41.1035C172.321 42.2751 172.018 43.602 172.089 44.9356V55.0182L166.563 55.0624Z" fill="white"/>
<path d="M203.754 36.7633L201.013 40.0101C200.151 39.1591 198.987 38.6828 197.775 38.6849C197.215 38.6535 196.661 38.8047 196.194 39.1156C196.013 39.2484 195.867 39.4235 195.769 39.6256C195.671 39.8276 195.623 40.0506 195.631 40.2751C195.631 41.0702 196.217 41.6666 197.41 42.0641L198.736 42.4727C201.323 43.2899 202.992 44.2397 203.754 45.2998C204.445 46.2636 204.799 47.428 204.76 48.6129C204.777 49.5587 204.588 50.497 204.207 51.3627C203.825 52.2284 203.26 53.0009 202.55 53.6266C200.918 55.0673 198.79 55.8195 196.614 55.7248C195.162 55.7638 193.718 55.4878 192.382 54.9159C191.047 54.344 189.851 53.4896 188.878 52.4118L191.807 49.0325C192.323 49.7221 192.989 50.2859 193.755 50.6818C194.52 51.0777 195.366 51.2954 196.228 51.3185C196.924 51.3371 197.608 51.1362 198.184 50.7443C198.435 50.5667 198.639 50.3294 198.776 50.0537C198.913 49.7781 198.979 49.4726 198.969 49.165C198.969 48.2595 198.383 47.5858 197.222 47.1552L195.951 46.7024C194.376 46.2384 192.926 45.427 191.707 44.3281C190.72 43.3157 190.175 41.9534 190.193 40.5401C190.172 39.6874 190.346 38.8412 190.703 38.0661C191.059 37.2909 191.588 36.6074 192.249 36.0676C193.762 35.0314 195.58 34.5335 197.41 34.654C199.687 34.6241 201.907 35.3635 203.71 36.7523" fill="white"/>
<path d="M213.26 52.5112V65.6528H207.733V35.3056H213.26V37.8566C213.979 36.8267 214.946 35.9945 216.072 35.4367C217.199 34.8789 218.447 34.6135 219.703 34.6651C221.021 34.619 222.332 34.8609 223.547 35.374C224.761 35.8871 225.848 36.659 226.733 37.6358C228.488 39.7593 229.443 42.4306 229.431 45.1849C229.419 47.9392 228.44 50.602 226.666 52.71C225.768 53.6915 224.667 54.4671 223.441 54.9837C222.214 55.5002 220.89 55.7456 219.559 55.7027C218.326 55.7371 217.104 55.4632 216.004 54.9059C214.904 54.3485 213.961 53.5254 213.26 52.5112ZM222.102 41.1917C221.052 40.1645 219.642 39.5892 218.172 39.5892C216.703 39.5892 215.293 40.1645 214.243 41.1917C213.734 41.7188 213.336 42.3417 213.07 43.0242C212.804 43.7068 212.677 44.4353 212.696 45.1674C212.676 45.9013 212.802 46.6319 213.068 47.3164C213.333 48.0009 213.733 48.6257 214.243 49.154C214.757 49.6732 215.369 50.0854 216.044 50.3668C216.718 50.6481 217.442 50.7929 218.172 50.7929C218.903 50.7929 219.627 50.6481 220.301 50.3668C220.976 50.0854 221.588 49.6732 222.102 49.154C222.612 48.6257 223.011 48.0009 223.277 47.3164C223.543 46.6319 223.669 45.9013 223.649 45.1674C223.668 44.4353 223.541 43.7068 223.275 43.0242C223.009 42.3417 222.61 41.7188 222.102 41.1917Z" fill="white"/>
<path d="M244.041 34.6651C246.968 34.5237 249.836 35.5212 252.043 37.4481C253.092 38.4446 253.927 39.6437 254.497 40.9726C255.068 42.3015 255.362 43.7324 255.362 45.1784C255.362 46.6244 255.068 48.0554 254.497 49.3843C253.927 50.7132 253.092 51.9123 252.043 52.9088C249.768 54.7102 246.95 55.6905 244.047 55.6905C241.144 55.6905 238.326 54.7102 236.05 52.9088C235.002 51.9123 234.167 50.7132 233.596 49.3843C233.025 48.0554 232.731 46.6244 232.731 45.1784C232.731 43.7324 233.025 42.3015 233.596 40.9726C234.167 39.6437 235.002 38.4446 236.05 37.4481C238.254 35.5229 241.118 34.5254 244.041 34.6651ZM240.073 49.1319C240.595 49.6538 241.214 50.0679 241.896 50.3504C242.578 50.6329 243.309 50.7783 244.047 50.7783C244.785 50.7783 245.516 50.6329 246.197 50.3504C246.879 50.0679 247.499 49.6538 248.02 49.1319C249.048 48.0745 249.624 46.6583 249.624 45.1839C249.624 43.7096 249.048 42.2933 248.02 41.2359C247.499 40.714 246.879 40.3 246.197 40.0175C245.516 39.735 244.785 39.5896 244.047 39.5896C243.309 39.5896 242.578 39.735 241.896 40.0175C241.214 40.3 240.595 40.714 240.073 41.2359C239.045 42.2933 238.47 43.7096 238.47 45.1839C238.47 46.6583 239.045 48.0745 240.073 49.1319Z" fill="white"/>
<path d="M258.597 55.0625V35.3059H264.123V38.2766C264.659 37.1426 265.516 36.1905 266.588 35.5378C267.584 34.9298 268.737 34.6266 269.904 34.6654C270.716 34.6821 271.519 34.8351 272.28 35.1182L271.551 40.3306C270.561 39.7243 269.392 39.4787 268.241 39.6358C267.091 39.7928 266.03 40.3426 265.24 41.192C264.392 42.5017 264.003 44.0553 264.134 45.6094V55.0957L258.597 55.0625Z" fill="white"/>
<path d="M286.56 40.0544H282.724V55.0624H277.154V40.0544H274.955V35.3058H277.154V28.5472H282.724V35.3058H286.56V40.0544Z" fill="white"/>
<path d="M303.78 48.7235L308.897 49.5407C308.67 50.1099 308.385 50.6539 308.046 51.1641C307.563 51.8625 307.023 52.5199 306.432 53.1298C305.595 53.9686 304.579 54.6067 303.459 54.9961C302.085 55.4907 300.632 55.7303 299.171 55.7029C297.786 55.7603 296.403 55.544 295.102 55.0665C293.801 54.5889 292.607 53.8595 291.589 52.92C290.549 51.9278 289.733 50.7245 289.198 49.391C288.662 48.0576 288.418 46.625 288.483 45.1896C288.432 43.7646 288.672 42.3441 289.189 41.015C289.706 39.6859 290.489 38.476 291.489 37.4593C292.481 36.5196 293.651 35.7889 294.931 35.3108C296.211 34.8327 297.574 34.6169 298.939 34.6763C300.392 34.5847 301.846 34.8301 303.188 35.3934C304.53 35.9566 305.724 36.8224 306.676 37.9231C308.362 40.1355 309.205 42.8763 309.052 45.6534V46.0731H294.23C294.189 47.2517 294.526 48.4127 295.192 49.3861C295.648 50.0035 296.25 50.4981 296.945 50.8258C297.639 51.1534 298.404 51.3038 299.171 51.2635C300.107 51.3056 301.035 51.0834 301.85 50.6225C302.666 50.1615 303.334 49.4804 303.78 48.6572V48.7235ZM294.385 42.5613H303.747C303.602 41.3999 303.002 40.3433 302.078 39.6238C301.21 38.9485 300.138 38.5865 299.038 38.5967C297.952 38.5902 296.897 38.9611 296.054 39.6458C295.135 40.3602 294.536 41.4078 294.385 42.5613Z" fill="white"/>
<path d="M313.317 55.0623V35.3056H318.843V38.2763C319.376 37.1401 320.234 36.1871 321.308 35.5375C322.304 34.9277 323.457 34.6243 324.624 34.6651C325.436 34.6818 326.239 34.8349 327 35.1179L326.271 40.3304C325.282 39.7248 324.115 39.4797 322.967 39.6367C321.818 39.7938 320.76 40.3432 319.971 41.1917C319.123 42.5014 318.734 44.055 318.865 45.6091V55.0954L313.317 55.0623Z" fill="white"/>
</svg>
