<svg viewBox="0 0 82 81" fill="none" xmlns="http://www.w3.org/2000/svg">
<path d="M43.3198 0H24.708V56.3056H43.3198V0Z" fill="#A1CDFC"/>
<path d="M81.0593 56.3125V37.716H24.7074V56.3125H81.0593Z" fill="#A1CDFC"/>
<path d="M74.5414 19.5404L61.5076 6.51727L28.2215 39.776L41.2554 52.7992L74.5414 19.5404Z" fill="#A1CDFC"/>
<path d="M56.3521 24.6874H24.708V56.3056H56.3521V24.6874Z" fill="#578DF1"/>
<path d="M37.7466 81H56.3584L56.3584 24.6944H37.7466L37.7466 81Z" fill="#4660E3"/>
<path d="M0 24.6875L0 43.284H56.3519V24.6875L0 24.6875Z" fill="#4660E3"/>
<path d="M6.50569 61.4664L19.5396 74.4896L52.8256 41.2309L39.7917 28.2077L6.50569 61.4664Z" fill="#4660E3"/>
<path d="M24.7143 56.3126L56.3584 56.3126L56.3584 24.6944L24.7143 24.6944L24.7143 56.3126Z" fill="#578DF1"/>
</svg>
