<svg width="18" height="20" viewBox="0 0 18 20" fill="none" xmlns="http://www.w3.org/2000/svg">
<path d="M16.2 20H1.8C1.32276 19.9996 0.865196 19.849 0.527734 19.5812C0.190272 19.3133 0.000476529 18.9502 0 18.5714V1.42857C0.000476529 1.04981 0.190272 0.686664 0.527734 0.418837C0.865196 0.151009 1.32276 0.000378198 1.8 0H16.2C16.6772 0.000378198 17.1348 0.151009 17.4723 0.418837C17.8097 0.686664 17.9995 1.04981 18 1.42857V18.5714C17.9995 18.9502 17.8097 19.3133 17.4723 19.5812C17.1348 19.849 16.6772 19.9996 16.2 20V20ZM1.8 1.42857V18.5714H16.2V1.42857H1.8Z" fill="#0F1B38"/>
</svg>
